<svg xmlns="http://www.w3.org/2000/svg" xmlns:xlink="http://www.w3.org/1999/xlink" x="0px" y="0px" viewBox="0 0 735.5 406.6" style="enable-background:new 0 0 735.5 406.6;" xml:space="preserve">
<style type="text/css">
	.st0{fill:#59595B;}
	.st1{fill:#D9DADB;}
	.st2{fill:#9C9E9F;}
	.st3{fill:#194891;}
	.st4{fill:#717273;}
	.st5{display:none;}
</style>
<g id="Layer_1">
	<g>
		<path class="st0" d="M282,108.7c1.3,10.6,4.5,19.5,9.6,26.7c7.7,10.8,18.8,16.3,33.1,16.3c6.9,0,12.9-1.3,18.1-3.8    c5.2-2.5,9.2-6.2,12-10.9c2.6-4.3,4.5-9.8,5.7-16.6l1.9,0.3c-1.5,11.9-5.7,20.9-12.7,26.9c10.2,38.3,27.6,57.4,52.1,57.4    c12,0,21.6-4.3,28.7-13.1c5.7-6.9,8.6-15.3,8.6-25.1c0-5.6-1-11.1-3-16.6c-2-5.5-4.7-10-8-13.7c-5.2-5.5-15.7-12.3-31.6-20.5    c-8.9-4.5-16.2-8.6-21.8-12.4c25.2,0.2,49.9,1.7,73.8,4.4c3.3,2.8,6.1,5.7,8.5,8.7c7.6,9.7,11.5,21.1,11.5,34c0,8.7-1.8,17-5.4,25    c-3.6,8-8.5,14.6-14.8,20c-10.9,9.1-24.5,13.7-41.1,13.7c-12.1,0-23.8-2.4-34.9-7.1c-7.6-3.3-12.4-4.9-14.3-4.9    c-4.4,0-7.4,2.2-9.1,6.7h-3.2l0.4-54c-6.9,4.5-16,6.7-27.3,6.7c-18.1,0-32.4-5.5-42.9-16.6c-7.4-7.8-12-17.4-13.9-29    C268.6,110.4,275.3,109.5,282,108.7"></path>
		<path class="st1" d="M367.7,88.6c101.7,0,193.8,28.1,261,67.7c-70.5-32.8-161.6-52.5-261-52.5s-190.5,19.8-261,52.5    C173.9,116.7,266,88.6,367.7,88.6"></path>
		<path class="st2" d="M352.6,61.3c-0.9-1.9-1.7-3.4-2.5-4.6c-7.3-11.1-16.6-16.6-27.7-16.6c-12.2,0-22.2,5.9-29.9,17.6    c-7.4,11.1-11.1,24.2-11.1,39.5c0,1.9,0.1,3.8,0.2,5.7c-6.8,1-13.4,2-20,3.2c-0.2-2.2-0.3-4.5-0.3-6.8c0-9.1,1.5-17.7,4.5-25.7    c3-8,7.2-14.7,12.7-19.9c5.4-5.3,12.4-9.5,20.8-12.4c7.4-2.6,14.8-3.9,22.3-3.9c5.6,0,11.3,0.9,17.1,2.6c1.4,0.4,5,1.6,10.9,3.6    c1.3,0.5,2.5,0.7,3.6,0.7c0.8,0,1.5-0.2,2.1-0.7c1.9-1.4,2.5-4,3.6-5.9c2.2-4.3,5.1-8.3,8.6-12c10.3-11.3,23-17,38.2-17    c7.5,0,16.5,2.2,27.2,6.7c7.3,3,12,4.5,14.1,4.5c3.2,0,5.4-2.4,6.5-7.3h3.3l1,55.7h-3.2c-4.4-15.3-8.7-26.5-13.1-33.5    c-8.9-14.3-20.4-21.4-34.2-21.4c-9.4,0-17.1,3-23.1,8.8c-6.6,6.3-9.8,14.2-9.8,23.7c0,10.7,4.4,19.8,13.3,27.2    c5.1,4.1,10.7,7.6,16.8,10.7l19.7,9.4c5.4,2.6,10.3,5.3,14.6,8c-23-2.7-46.7-4-70.9-4l-1.8,0c-0.5-0.5-1-1-1.5-1.5    c-7.9-8.8-11.9-19.5-11.9-32.1C352.6,62.6,352.6,61.9,352.6,61.3"></path>
		<path class="st3" d="M690.7,320.3l0.1-17.8h1c3.1,12,8.5,18,16.1,18c3.7,0,6.6-1.3,8.8-4c1.7-2.1,2.6-4.7,2.6-7.7    c0-1.7-0.3-3.4-0.9-5.1c-0.6-1.7-1.4-3.1-2.5-4.2c-1.6-1.7-4.8-3.8-9.7-6.3c-4.9-2.5-8.2-4.6-9.8-6.4c-2.4-2.7-3.7-6-3.7-9.8    c0-4.5,1.5-8.3,4.5-11.6c3.1-3.5,7.1-5.2,11.7-5.2c2.3,0,5.1,0.7,8.3,2.1c2.2,0.9,3.7,1.4,4.3,1.4c1,0,1.6-0.7,2-2.2h1l0.3,17.1    h-1c-1.3-4.7-2.7-8.1-4-10.3c-2.7-4.4-6.3-6.6-10.5-6.6c-2.9,0-5.3,0.9-7.1,2.7c-2,1.9-3,4.4-3,7.3c0,3.3,1.4,6.1,4.1,8.3    c1.6,1.3,3.3,2.4,5.2,3.3l6.1,2.9c4.7,2.2,8,4.7,10.1,7.4c2.3,3,3.5,6.5,3.5,10.4c0,2.7-0.6,5.2-1.7,7.7c-1.1,2.4-2.6,4.5-4.5,6.1    c-3.3,2.8-7.5,4.2-12.6,4.2c-3.7,0-7.3-0.7-10.7-2.2c-2.3-1-3.8-1.5-4.4-1.5c-1.3,0-2.3,0.7-2.8,2.1H690.7z M660.4,295.1l-9-22.3    l-8.5,22.3H660.4z M687.4,320.4h-28.3v-1c2.6-0.2,4.3-0.7,5.3-1.3c1.8-1.1,2.7-2.7,2.7-4.5c0-1.3-0.7-3.5-2-6.7l-4.1-10.2h-18.9    l-2.2,5.9c-2,4.9-3,8.3-3,10.2c0,2.4,1,4.2,3,5.4c1,0.6,2.3,1,3.9,1.1v1h-19.3v-1c2.9,0,5.5-1.6,7.7-4.8c1.1-1.5,2.1-3.4,3.1-5.6    c0.7-1.7,1.6-4,2.7-6.8l15.7-40.5h2.5l18.7,45.2c2.1,5.3,4,8.7,5.6,10.2c1.3,1.2,3.6,2,6.9,2.3V320.4z M562.9,261.8h28.3v1    c-1.9,0.1-3.2,0.2-4,0.4c-2,0.4-3.1,1.5-3.1,3.2c0,1.6,1.2,4.1,3.5,7.5l7.5,11l6.6-8.1c1.7-2.1,2.9-3.7,3.7-4.7    c1.7-2.3,2.5-4.1,2.5-5.6c0-1.7-1-2.7-2.8-3.2c-0.8-0.2-1.9-0.4-3.5-0.5v-1h19.7v1c-1.8,0-3.3,0.2-4.3,0.6c-1.6,0.6-3.7,2.2-6.1,5    c-0.9,1-2.6,3.2-5.3,6.5l-9.3,11.6l14.8,22c2.6,3.9,5,6.8,7.1,8.5c2,1.6,4.4,2.4,7.4,2.6v1h-29.8v-1c5.1-0.6,7.6-2.2,7.6-4.8    c0-0.9-0.8-2.7-2.4-5.1l-10.5-15.9l-10.3,12.5c-2.9,3.6-4.4,6.4-4.4,8.4c0,3.1,2.3,4.7,6.9,4.9v1h-20.9v-1c1.6-0.3,3-0.7,4.3-1.4    c2.6-1.5,6.7-5.5,12.1-12.3l11.2-13.7l-13.3-20c-1.9-2.7-3.1-4.5-3.7-5.2c-1.7-2.2-3.6-3.5-5.8-3.8c-0.8-0.1-2-0.2-3.6-0.4V261.8z     M550.5,275.3v31.7c0,2.7,0.1,4.7,0.4,6.1c0.3,1.4,0.7,2.5,1.4,3.4c1.5,1.9,3.9,2.9,7.2,3.1v1h-27.4v-1c3.2-0.1,5.6-1.1,7.2-3.1    c0.9-1.2,1.5-2.8,1.7-4.9c0.1-1.1,0.2-2.6,0.2-4.6v-31.7c0-2.9-0.2-5.1-0.5-6.5c-0.5-2.4-1.9-4.1-4.2-5.2    c-1.1-0.5-2.6-0.8-4.3-0.9v-1h27.4v1c-3.2,0.1-5.6,1.1-7.2,3.1c-0.9,1.2-1.4,2.8-1.6,4.9C550.6,272,550.5,273.5,550.5,275.3     M523.5,261.8l0.7,14.2h-1c-0.5-4-2.1-7.2-4.9-9.6c-1.8-1.5-4-2.4-6.6-2.8c-1.6-0.3-3.7-0.4-6.2-0.4h-9.8v25.8h2.6    c3.1,0,5.3-0.3,6.7-0.7c1.5-0.5,2.7-1.5,3.5-2.9c0.8-1.5,1.3-3.7,1.7-6.6h1l-0.2,23.1h-1c-0.4-3.6-1.3-6.4-2.8-8.3    c-1.1-1.4-2.6-2.3-4.6-2.8c-1.2-0.3-2.7-0.4-4.5-0.4h-2.4v9.8c0,3.3,0.1,5.7,0.2,7.4c0.3,4.4,1.7,7.5,4.2,9.3    c2.1,1.5,5.2,2.3,9.5,2.3c7.1,0,12.1-2.1,14.9-6.3c1.5-2.2,2.7-5.4,3.6-9.5h1l-0.6,17.2h-51.3v-1c3.2-0.1,5.6-1.1,7.2-3.1    c0.9-1.2,1.5-2.8,1.7-4.9c0.1-1.2,0.2-2.7,0.2-4.6v-31.7c0-2.9-0.2-5.1-0.5-6.5c-0.9-3.9-3.7-5.9-8.6-6v-1H523.5z M433.9,320.3    l0.1-17.8h1c3.1,12,8.5,18,16.1,18c3.7,0,6.6-1.3,8.8-4c1.7-2.1,2.6-4.7,2.6-7.7c0-1.7-0.3-3.4-0.9-5.1c-0.6-1.7-1.4-3.1-2.5-4.2    c-1.6-1.7-4.8-3.8-9.7-6.3c-4.9-2.5-8.2-4.6-9.8-6.4c-2.4-2.7-3.7-6-3.7-9.8c0-4.5,1.5-8.3,4.5-11.6c3.1-3.5,7.1-5.2,11.7-5.2    c2.3,0,5.1,0.7,8.4,2.1c2.2,0.9,3.7,1.4,4.3,1.4c1,0,1.6-0.7,2-2.2h1l0.3,17.1h-1c-1.3-4.7-2.7-8.1-4-10.3    c-2.7-4.4-6.2-6.6-10.5-6.6c-2.9,0-5.3,0.9-7.1,2.7c-2,1.9-3,4.4-3,7.3c0,3.3,1.4,6.1,4.1,8.3c1.6,1.3,3.3,2.4,5.2,3.3l6.1,2.9    c4.7,2.2,8,4.7,10.1,7.4c2.3,3,3.5,6.5,3.5,10.4c0,2.7-0.6,5.2-1.7,7.7c-1.1,2.4-2.6,4.5-4.5,6.1c-3.3,2.8-7.5,4.2-12.6,4.2    c-3.7,0-7.3-0.7-10.7-2.2c-2.3-1-3.8-1.5-4.4-1.5c-1.3,0-2.3,0.7-2.8,2.1H433.9z M381.5,295.1l-9-22.3l-8.5,22.3H381.5z     M408.5,320.4h-28.3v-1c2.6-0.2,4.3-0.7,5.3-1.3c1.8-1.1,2.7-2.7,2.7-4.5c0-1.3-0.7-3.5-2-6.7l-4.1-10.2h-18.9l-2.2,5.9    c-2,4.9-3,8.3-3,10.2c0,2.4,1,4.2,3,5.4c1,0.6,2.3,1,3.9,1.1v1h-19.3v-1c2.9,0,5.5-1.6,7.7-4.8c1.1-1.5,2.1-3.4,3.1-5.6    c0.7-1.7,1.6-4,2.7-6.8l15.7-40.5h2.4l18.7,45.2c2.1,5.3,4,8.7,5.5,10.2c1.3,1.2,3.6,2,6.9,2.3V320.4z M335.4,275.3v31.7    c0,2.7,0.1,4.7,0.4,6.1c0.3,1.4,0.7,2.5,1.4,3.4c1.5,1.9,3.9,2.9,7.2,3.1v1H317v-1c3.2-0.1,5.6-1.1,7.2-3.1    c0.9-1.2,1.5-2.8,1.7-4.9c0.1-1.1,0.2-2.6,0.2-4.6v-31.7c0-2.9-0.2-5.1-0.5-6.5c-0.5-2.4-1.9-4.1-4.2-5.2    c-1.1-0.5-2.6-0.8-4.3-0.9v-1h27.4v1c-3.2,0.1-5.6,1.1-7.2,3.1c-0.9,1.2-1.4,2.8-1.6,4.9C335.5,272,335.4,273.5,335.4,275.3     M267.4,263.1v42.7c0,3,0.2,5.2,0.6,6.6c1.2,4.6,4.7,6.9,10.5,6.9c5.5,0,9.9-1.5,13.2-4.4c3.1-2.8,5.4-6.6,7-11.2    c1.1-3.3,1.7-6.9,1.7-10.8c0-5.2-1-10.1-3-14.5c-2.7-6-6.7-10.3-12-12.9c-3.2-1.6-7.5-2.4-12.8-2.4H267.4z M258.1,306.9v-31.7    c0-3.9-0.3-6.5-0.9-7.7c-1.3-3.1-4-4.7-8.2-4.8v-1h23.6c7,0,11.8,0.3,14.4,0.8c7.7,1.5,13.7,5.4,18.1,11.7    c3.8,5.5,5.7,11.8,5.7,19c0,7.2-1.9,13.3-5.6,18.2c-2.8,3.6-6.6,6.2-11.3,7.5c-3.5,1-7.9,1.5-13.1,1.5h-7.1H249v-1    c3.2-0.1,5.6-1.1,7.2-3.1c0.9-1.2,1.5-2.8,1.7-4.9C258,310.3,258.1,308.8,258.1,306.9 M200.5,276.2v24.3c0,3.7,0.1,6.4,0.4,8    c0.6,3.8,2.3,6.8,5,9.2c2.3,1.9,5.5,2.8,9.7,2.8c4,0,7.7-0.9,11.2-2.5c4.2-2,6.6-4.8,7.3-8.2c0.3-1.6,0.5-5.1,0.5-10.4v-24    c0-2.9-0.2-5.1-0.5-6.5c-0.5-2.4-1.9-4.1-4.2-5.2c-1.1-0.5-2.6-0.8-4.3-0.9v-1h19.8v1c-3.2,0.1-5.6,1.1-7.2,3.1    c-0.9,1.2-1.5,2.8-1.7,4.9c-0.1,1.2-0.2,2.7-0.2,4.6v27.1c0,3.5-0.2,6.2-0.7,8.1c-0.9,3.8-3.8,6.8-8.6,8.9    c-3.8,1.7-8.2,2.5-13.2,2.5c-9.1,0-15.4-2.1-19.1-6.3c-1.8-2-2.9-4.5-3.3-7.4c-0.2-1.3-0.3-3.5-0.3-6.8v-26.1    c0-2.9-0.2-5.1-0.5-6.5c-0.9-3.9-3.7-5.9-8.6-6v-1h27.4v1c-3.2,0.1-5.6,1.1-7.2,3.1c-0.9,1.2-1.5,2.8-1.7,4.9    C200.6,271.8,200.5,273.6,200.5,276.2 M148,254.8l8.4-10.6h8.6l-14.9,10.6H148z M154.5,295.1l-9-22.3l-8.5,22.3H154.5z     M181.5,320.4h-28.2v-1c2.6-0.2,4.3-0.7,5.3-1.3c1.8-1.1,2.7-2.7,2.7-4.5c0-1.3-0.7-3.5-2-6.7l-4.1-10.2h-18.9l-2.2,5.9    c-2,4.9-3,8.3-3,10.2c0,2.4,1,4.2,3,5.4c1,0.6,2.3,1,3.9,1.1v1h-19.3v-1c2.9,0,5.5-1.6,7.7-4.8c1.1-1.5,2.1-3.4,3.1-5.6    c0.7-1.7,1.6-4,2.7-6.8l15.7-40.5h2.5l18.7,45.2c2.1,5.3,4,8.7,5.5,10.2c1.3,1.2,3.6,2,6.9,2.3V320.4z M118.9,302.8h1l-0.6,17.7    H68v-1c3.2,0,5.5-1,7.2-3c0.9-1.2,1.5-2.8,1.7-4.9c0.1-1.2,0.2-2.7,0.2-4.6v-31.7c0-4-0.3-6.5-0.9-7.7c-1.3-3.1-4-4.7-8.2-4.8v-1    h27.5v1c-3.1,0.1-5.4,1-6.9,2.6c-1.1,1.3-1.8,3.1-2,5.3c-0.1,1.2-0.2,2.7-0.2,4.6v24.8c0,3.1,0.1,5.6,0.2,7.4    c0.3,4.4,1.7,7.5,4.2,9.3c2.1,1.5,5.2,2.3,9.4,2.3c7.1,0,12.1-2.2,15-6.5C116.7,310.4,117.9,307.1,118.9,302.8 M61.9,261.5    l0.5,19.2h-1c-0.2-0.6-0.5-1.2-0.7-1.9c-1.5-4.2-2.8-7.1-3.8-8.6c-3.8-5.7-8.6-8.6-14.3-8.6c-6.3,0-11.4,3-15.4,9.1    c-3.8,5.7-5.7,12.5-5.7,20.4c0,8.2,1.8,14.7,5.3,19.7c4,5.6,9.7,8.4,17.1,8.4c3.6,0,6.7-0.6,9.3-2c2.7-1.3,4.7-3.2,6.2-5.6    c1.3-2.2,2.3-5,2.9-8.6l1,0.2c-0.8,6.2-3,10.9-6.8,14c-3.7,3.1-9,4.7-15.7,4.7c-9.3,0-16.7-2.8-22.1-8.6    c-5.1-5.3-7.6-12.4-7.6-21.2c0-4.7,0.8-9.1,2.3-13.2c1.6-4.1,3.7-7.6,6.5-10.3c2.8-2.7,6.4-4.9,10.7-6.4c3.8-1.3,7.6-2,11.5-2    c2.9,0,5.8,0.4,8.8,1.3c0.7,0.2,2.6,0.8,5.6,1.8c0.7,0.2,1.3,0.4,1.8,0.4c1,0,1.8-0.8,2.5-2.3H61.9z"></path>
		<path class="st4" d="M694.7,376.6c0-1.4-0.3-2.6-0.9-3.5c-0.6-1-1.3-1.8-2.3-2.3c-0.9-0.6-2-1-3.2-1.3c-1.2-0.3-2.4-0.4-3.7-0.4    c-1.2,0-2.4,0.1-3.5,0.4c-1.1,0.3-2.1,0.6-3.1,1.2c-0.9,0.6-1.6,1.3-2.2,2.2c-0.5,0.9-0.8,2-0.8,3.3c0,1.9,0.7,3.3,2.1,4.3    c1.4,1,3.7,1.7,6.7,2.2l0.8,0.1c1.3,0.2,2.4,0.4,3.3,0.6c0.8,0.2,1.6,0.4,2.4,0.8c0.7,0.3,1.3,0.8,1.7,1.3    c0.4,0.5,0.6,1.2,0.6,2.1c0,0.9-0.2,1.7-0.6,2.3c-0.4,0.6-1,1.1-1.7,1.5c-0.7,0.4-1.5,0.6-2.3,0.8c-0.9,0.2-1.8,0.2-2.8,0.2    c-1.2,0-2.3-0.1-3.3-0.3c-1-0.2-1.8-0.5-2.6-1c-0.7-0.5-1.3-1.1-1.8-1.9c-0.4-0.8-0.7-1.8-0.8-3.1h-2.5c0.1,1.6,0.4,2.9,1,4    c0.6,1.1,1.3,2,2.3,2.7c1,0.7,2.1,1.2,3.4,1.5c1.3,0.3,2.7,0.4,4.3,0.4c1.3,0,2.5-0.1,3.7-0.4c1.2-0.3,2.2-0.7,3.2-1.2    c1-0.6,1.7-1.4,2.3-2.3c0.6-1,0.9-2.2,0.9-3.6c0-1.1-0.2-2-0.7-2.8c-0.5-0.8-1.1-1.4-1.9-1.8c-0.8-0.5-1.7-0.8-2.7-1.1    c-1-0.3-2.1-0.5-3.5-0.7c-3.3-0.5-5.6-1.1-6.9-1.7c-1.3-0.6-1.9-1.7-1.9-3.1c0-1.3,0.6-2.4,1.9-3.1c1.3-0.8,2.9-1.1,4.9-1.1    c1,0,2,0.1,2.9,0.3c0.9,0.2,1.6,0.4,2.3,0.8c0.7,0.4,1.2,0.9,1.6,1.6c0.4,0.7,0.7,1.5,0.8,2.5H694.7z M642.7,381.8    c0-1.8,0.3-3.3,0.8-4.6c0.6-1.3,1.3-2.4,2.3-3.3c1-0.9,2.1-1.5,3.3-1.9c1.2-0.4,2.5-0.6,3.9-0.6c1.4,0,2.7,0.2,3.9,0.6    c1.2,0.4,2.4,1,3.3,1.9c1,0.9,1.8,1.9,2.3,3.3c0.6,1.3,0.8,2.9,0.8,4.6s-0.3,3.3-0.8,4.6c-0.6,1.3-1.3,2.4-2.3,3.3    c-1,0.9-2.1,1.5-3.3,1.9c-1.2,0.4-2.6,0.6-3.9,0.6c-1.4,0-2.7-0.2-3.9-0.6c-1.2-0.4-2.4-1-3.3-1.9c-1-0.8-1.8-1.9-2.3-3.3    C643,385.1,642.7,383.5,642.7,381.8 M640,381.8c0,2.1,0.3,3.9,1,5.5c0.7,1.6,1.7,2.9,2.9,4c1.2,1.1,2.6,1.9,4.2,2.4    c1.6,0.5,3.2,0.8,5,0.8c1.8,0,3.4-0.3,5-0.8c1.6-0.5,3-1.3,4.2-2.4c1.2-1.1,2.2-2.4,2.9-4c0.7-1.6,1-3.4,1-5.5    c0-2.1-0.3-3.9-1-5.5c-0.7-1.6-1.7-2.9-2.9-4c-1.2-1.1-2.6-1.9-4.2-2.4c-1.6-0.5-3.2-0.8-5-0.8c-1.8,0-3.4,0.3-5,0.8    c-1.6,0.5-3,1.3-4.2,2.4c-1.2,1.1-2.2,2.4-2.9,4C640.4,377.9,640,379.7,640,381.8 M611.1,372h9.1c2.8,0,4.8,0.8,6.1,2.5    c1.3,1.6,2,4.1,2,7.3c0,1.8-0.2,3.3-0.6,4.6c-0.4,1.3-1,2.3-1.7,3c-0.7,0.8-1.6,1.3-2.6,1.7c-1,0.3-2,0.5-3.2,0.5h-9.1V372z     M608.6,393.9h12.1c1.7,0,3.1-0.3,4.4-0.9c1.3-0.6,2.4-1.5,3.3-2.6c0.9-1.1,1.5-2.4,2-3.8c0.4-1.5,0.7-3.1,0.7-4.8    c0-3.8-0.9-6.8-2.7-8.9c-1.8-2.1-4.5-3.2-8-3.2h-11.7V393.9z M597.7,393.9h2.9l-11-24.2h-2.9l-11,24.2h2.7l3.3-7.3h12.7    L597.7,393.9z M593.4,384.2h-10.7l5.4-12L593.4,384.2z M565.8,393.9h1.9v-12.5h-11.2v2.3h8.9c-0.2,1.2-0.5,2.3-0.9,3.3    c-0.4,1-1,1.9-1.8,2.7c-0.8,0.8-1.8,1.4-3,1.9c-1.2,0.5-2.7,0.7-4.5,0.7c-3.2,0-5.6-0.9-7.3-2.7c-1.7-1.8-2.5-4.4-2.5-7.7    c0-3.2,0.9-5.8,2.7-7.6c1.8-1.8,4.3-2.8,7.6-2.8c2.3,0,4.2,0.5,5.8,1.5c1.6,1,2.7,2.5,3.1,4.5h2.7c-0.2-1.1-0.5-2.2-1.2-3.2    c-0.6-1-1.4-1.9-2.4-2.6c-1-0.8-2.2-1.4-3.6-1.8c-1.4-0.4-2.9-0.6-4.5-0.6c-2,0-3.7,0.3-5.4,0.9c-1.6,0.6-3,1.5-4.1,2.7    c-1.1,1.2-2,2.5-2.6,4c-0.6,1.5-0.9,3.2-0.9,5.1c0,1.9,0.3,3.6,0.8,5.2c0.6,1.6,1.4,2.9,2.5,4c1.1,1.1,2.4,2,4,2.6    c1.6,0.6,3.4,0.9,5.4,0.9c2.3,0,4.3-0.4,5.8-1.2c1.6-0.8,3-2.1,4.2-3.9h0.1L565.8,393.9z M510.2,381.8c0-1.8,0.3-3.3,0.8-4.6    c0.6-1.3,1.3-2.4,2.3-3.3c1-0.9,2.1-1.5,3.3-1.9c1.2-0.4,2.6-0.6,3.9-0.6c1.4,0,2.7,0.2,3.9,0.6c1.2,0.4,2.4,1,3.3,1.9    c1,0.9,1.8,1.9,2.3,3.3c0.6,1.3,0.8,2.9,0.8,4.6s-0.3,3.3-0.8,4.6c-0.6,1.3-1.3,2.4-2.3,3.3c-1,0.9-2.1,1.5-3.3,1.9    c-1.2,0.4-2.6,0.6-3.9,0.6c-1.4,0-2.7-0.2-3.9-0.6c-1.2-0.4-2.4-1-3.3-1.9c-1-0.8-1.8-1.9-2.3-3.3    C510.5,385.1,510.2,383.5,510.2,381.8 M507.5,381.8c0,2.1,0.3,3.9,1.1,5.5c0.7,1.6,1.7,2.9,2.9,4c1.2,1.1,2.6,1.9,4.2,2.4    c1.6,0.5,3.2,0.8,5,0.8c1.8,0,3.4-0.3,5-0.8c1.6-0.5,3-1.3,4.2-2.4c1.2-1.1,2.2-2.4,2.9-4c0.7-1.6,1-3.4,1-5.5    c0-2.1-0.3-3.9-1-5.5c-0.7-1.6-1.7-2.9-2.9-4c-1.2-1.1-2.6-1.9-4.2-2.4c-1.6-0.5-3.2-0.8-5-0.8c-1.8,0-3.4,0.3-5,0.8    c-1.6,0.5-3,1.3-4.2,2.4c-1.2,1.1-2.2,2.4-2.9,4C507.8,377.9,507.5,379.7,507.5,381.8 M488.8,391l-9.3-21.3h-2.9l10.8,24.2h2.7    l10.7-24.2H498L488.8,391z M449.4,372h9.1c2.8,0,4.8,0.8,6.1,2.5c1.3,1.6,2,4.1,2,7.3c0,1.8-0.2,3.3-0.6,4.6c-0.4,1.3-1,2.3-1.7,3    c-0.7,0.8-1.6,1.3-2.6,1.7c-1,0.3-2,0.5-3.2,0.5h-9.1V372z M446.9,393.9H459c1.6,0,3.1-0.3,4.4-0.9c1.3-0.6,2.4-1.5,3.3-2.6    c0.9-1.1,1.5-2.4,2-3.8c0.4-1.5,0.7-3.1,0.7-4.8c0-3.8-0.9-6.8-2.7-8.9c-1.8-2.1-4.5-3.2-8-3.2h-11.8V393.9z M435.9,393.9h2.9    l-11-24.2H425l-11,24.2h2.7l3.3-7.3h12.7L435.9,393.9z M431.7,384.2H421l5.4-12L431.7,384.2z M363.4,393.9h19.5v-2.3h-17v-9.1H382    v-2.3h-16.1V372h16.7v-2.3h-19.2V393.9z M333.1,372h9.1c2.8,0,4.8,0.8,6.1,2.5c1.3,1.6,2,4.1,2,7.3c0,1.8-0.2,3.3-0.6,4.6    c-0.4,1.3-1,2.3-1.7,3c-0.7,0.8-1.6,1.3-2.6,1.7c-1,0.3-2,0.5-3.2,0.5h-9.1V372z M330.6,393.9h12.1c1.6,0,3.1-0.3,4.4-0.9    c1.3-0.6,2.4-1.5,3.3-2.6c0.9-1.1,1.5-2.4,2-3.8c0.4-1.5,0.7-3.1,0.7-4.8c0-3.8-0.9-6.8-2.7-8.9c-1.8-2.1-4.5-3.2-8-3.2h-11.8    V393.9z M277.5,393.9H297v-2.3h-17v-9.1h16.1v-2.3H280V372h16.7v-2.3h-19.2V393.9z M247.3,372h9.1c2.8,0,4.8,0.8,6.1,2.5    c1.3,1.6,2,4.1,2,7.3c0,1.8-0.2,3.3-0.6,4.6c-0.4,1.3-1,2.3-1.7,3c-0.7,0.8-1.6,1.3-2.6,1.7c-1,0.3-2,0.5-3.2,0.5h-9.1V372z     M244.8,393.9h12.1c1.6,0,3.1-0.3,4.4-0.9c1.3-0.6,2.4-1.5,3.3-2.6c0.9-1.1,1.5-2.4,2-3.8c0.4-1.5,0.7-3.1,0.7-4.8    c0-3.8-0.9-6.8-2.7-8.9c-1.8-2.1-4.5-3.2-8-3.2h-11.7V393.9z M233.8,393.9h2.9l-11-24.2h-2.9l-11,24.2h2.7l3.3-7.3h12.7    L233.8,393.9z M229.6,384.2h-10.7l5.4-12L229.6,384.2z M184.5,372h9.1c2.8,0,4.8,0.8,6.1,2.5c1.3,1.6,2,4.1,2,7.3    c0,1.8-0.2,3.3-0.6,4.6c-0.4,1.3-1,2.3-1.7,3c-0.7,0.8-1.6,1.3-2.6,1.7c-1,0.3-2,0.5-3.2,0.5h-9.1V372z M182,393.9h12.1    c1.6,0,3.1-0.3,4.4-0.9c1.3-0.6,2.4-1.5,3.3-2.6c0.9-1.1,1.5-2.4,2-3.8c0.4-1.5,0.7-3.1,0.7-4.8c0-3.8-0.9-6.8-2.7-8.9    c-1.8-2.1-4.5-3.2-8-3.2H182V393.9z M153.2,393.9h19.5v-2.3h-17v-9.1h16.1v-2.3h-16.1V372h16.7v-2.3h-19.2V393.9z M139.5,393.9    h2.5v-24.2h-2.5V393.9z M127.1,384.7c-0.5,2.4-1.4,4.2-3,5.6c-1.5,1.3-3.7,2-6.5,2c-1.8,0-3.3-0.3-4.6-0.8    c-1.3-0.6-2.4-1.3-3.2-2.3c-0.8-1-1.4-2.1-1.8-3.3c-0.4-1.2-0.6-2.6-0.6-4c0-3.4,0.9-6,2.7-7.8c1.8-1.8,4.3-2.6,7.4-2.6    c1.1,0,2.2,0.1,3.2,0.4c1,0.3,2,0.6,2.8,1.2c0.8,0.5,1.5,1.2,2.1,2c0.6,0.8,0.9,1.8,1.1,2.9h2.5c-0.2-1.5-0.6-2.9-1.4-4    c-0.7-1.1-1.6-2-2.7-2.7c-1.1-0.7-2.3-1.2-3.6-1.5c-1.3-0.3-2.7-0.5-4-0.5c-2.2,0-4.2,0.4-5.8,1.1c-1.7,0.8-3,1.8-4,3    c-1,1.3-1.8,2.6-2.3,4.1c-0.5,1.5-0.7,3-0.7,4.4c0,1.9,0.3,3.7,0.9,5.2c0.6,1.6,1.5,2.9,2.6,4c1.1,1.1,2.5,2,4.1,2.6    c1.6,0.6,3.4,0.9,5.3,0.9c1.7,0,3.3-0.3,4.7-0.8c1.4-0.5,2.7-1.2,3.7-2.1c1-0.9,1.9-1.9,2.5-3.1c0.6-1.2,1-2.5,1.1-3.8H127.1z     M72.5,381.8c0-1.8,0.3-3.3,0.8-4.6c0.6-1.3,1.3-2.4,2.3-3.3c1-0.9,2.1-1.5,3.3-1.9c1.2-0.4,2.6-0.6,3.9-0.6    c1.4,0,2.7,0.2,3.9,0.6c1.2,0.4,2.4,1,3.3,1.9c1,0.9,1.8,1.9,2.3,3.3c0.6,1.3,0.8,2.9,0.8,4.6s-0.3,3.3-0.8,4.6    c-0.6,1.3-1.3,2.4-2.3,3.3c-1,0.9-2.1,1.5-3.3,1.9c-1.2,0.4-2.6,0.6-3.9,0.6c-1.4,0-2.7-0.2-3.9-0.6c-1.2-0.4-2.4-1-3.3-1.9    c-1-0.8-1.8-1.9-2.3-3.3C72.8,385.1,72.5,383.5,72.5,381.8 M69.8,381.8c0,2.1,0.3,3.9,1.1,5.5c0.7,1.6,1.7,2.9,2.9,4    c1.2,1.1,2.6,1.9,4.2,2.4c1.6,0.5,3.2,0.8,5,0.8c1.8,0,3.4-0.3,5-0.8c1.6-0.5,3-1.3,4.2-2.4c1.2-1.1,2.2-2.4,2.9-4    c0.7-1.6,1-3.4,1-5.5c0-2.1-0.4-3.9-1-5.5c-0.7-1.6-1.7-2.9-2.9-4c-1.2-1.1-2.6-1.9-4.2-2.4c-1.6-0.5-3.2-0.8-5-0.8    c-1.8,0-3.4,0.3-5,0.8c-1.6,0.5-3,1.3-4.2,2.4c-1.2,1.1-2.2,2.4-2.9,4C70.2,377.9,69.8,379.7,69.8,381.8 M61,376.6    c0-1.4-0.3-2.6-0.9-3.5c-0.6-1-1.3-1.8-2.3-2.3c-1-0.6-2-1-3.2-1.3c-1.2-0.3-2.4-0.4-3.7-0.4c-1.2,0-2.4,0.1-3.5,0.4    c-1.1,0.3-2.1,0.6-3,1.2c-0.9,0.6-1.6,1.3-2.2,2.2c-0.5,0.9-0.8,2-0.8,3.3c0,1.9,0.7,3.3,2.2,4.3c1.4,1,3.7,1.7,6.7,2.2l0.8,0.1    c1.3,0.2,2.4,0.4,3.3,0.6c0.8,0.2,1.6,0.4,2.4,0.8c0.7,0.3,1.3,0.8,1.7,1.3c0.4,0.5,0.6,1.2,0.6,2.1c0,0.9-0.2,1.7-0.6,2.3    c-0.4,0.6-1,1.1-1.7,1.5c-0.7,0.4-1.5,0.6-2.3,0.8c-0.9,0.2-1.8,0.2-2.8,0.2c-1.2,0-2.3-0.1-3.3-0.3c-1-0.2-1.8-0.5-2.6-1    c-0.7-0.5-1.3-1.1-1.8-1.9c-0.4-0.8-0.7-1.8-0.8-3.1h-2.5c0.1,1.6,0.4,2.9,1,4c0.6,1.1,1.3,2,2.3,2.7c1,0.7,2.1,1.2,3.4,1.5    c1.3,0.3,2.7,0.4,4.3,0.4c1.3,0,2.5-0.1,3.7-0.4c1.2-0.3,2.2-0.7,3.2-1.2c1-0.6,1.7-1.4,2.3-2.3c0.6-1,0.9-2.2,0.9-3.6    c0-1.1-0.2-2-0.7-2.8c-0.5-0.8-1.1-1.4-1.9-1.8c-0.8-0.5-1.7-0.8-2.7-1.1c-1-0.3-2.1-0.5-3.5-0.7c-3.3-0.5-5.6-1.1-6.9-1.7    c-1.3-0.6-1.9-1.7-1.9-3.1c0-1.3,0.6-2.4,1.9-3.1c1.3-0.8,2.9-1.1,4.9-1.1c1,0,2,0.1,2.9,0.3c0.9,0.2,1.6,0.4,2.3,0.8    c0.7,0.4,1.2,0.9,1.6,1.6c0.4,0.7,0.7,1.5,0.8,2.5H61z"></path>
	</g>
</g>
<g id="Camada_2" class="st5">
</g>
</svg>